<svg xmlns="http://www.w3.org/2000/svg" xmlns:xlink="http://www.w3.org/1999/xlink" width="238" zoomAndPan="magnify" viewBox="0 0 178.5 101.999999" height="136" preserveAspectRatio="xMidYMid meet" version="1.0"><defs><g/><clipPath id="id1"><path d="M 19 92 L 27 92 L 27 101.855469 L 19 101.855469 Z M 19 92 " clip-rule="nonzero"/></clipPath><clipPath id="id2"><path d="M 82 92 L 89 92 L 89 101.855469 L 82 101.855469 Z M 82 92 " clip-rule="nonzero"/></clipPath><clipPath id="id3"><path d="M 167 92 L 175 92 L 175 101.855469 L 167 101.855469 Z M 167 92 " clip-rule="nonzero"/></clipPath></defs><path fill="#f59e2f" d="M 107.410156 20.382812 C 102.21875 20.320312 98.027344 16.101562 98.027344 10.898438 C 92.828125 10.898438 88.605469 6.710938 88.550781 1.519531 C 86.519531 1.214844 84.453125 1.539062 82.636719 2.472656 L 77.515625 5.078125 C 75.667969 6.023438 74.167969 7.527344 73.222656 9.375 L 70.625 14.476562 C 69.679688 16.328125 69.347656 18.425781 69.671875 20.484375 L 70.570312 26.136719 C 70.894531 28.183594 71.859375 30.074219 73.324219 31.542969 L 77.386719 35.605469 C 78.851562 37.074219 80.726562 38.03125 82.777344 38.355469 L 88.457031 39.253906 C 90.507812 39.582031 92.59375 39.246094 94.4375 38.308594 L 99.566406 35.695312 C 101.410156 34.757812 102.910156 33.257812 103.847656 31.414062 L 106.453125 26.304688 C 107.382812 24.480469 107.714844 22.402344 107.410156 20.382812 Z M 82.207031 29.179688 C 80.8125 29.179688 79.675781 28.042969 79.675781 26.71875 C 79.675781 25.398438 80.8125 24.261719 82.207031 24.261719 C 83.601562 24.261719 84.738281 25.398438 84.738281 26.71875 C 84.738281 28.042969 83.597656 29.179688 82.207031 29.179688 Z M 84.738281 16.59375 C 83.34375 16.59375 82.207031 15.457031 82.207031 14.136719 C 82.207031 12.8125 83.34375 11.675781 84.738281 11.675781 C 86.132812 11.675781 87.269531 12.8125 87.269531 14.136719 C 87.269531 15.457031 86.128906 16.59375 84.738281 16.59375 Z M 97.394531 26.648438 C 96 26.648438 94.863281 25.511719 94.863281 24.1875 C 94.863281 22.867188 96 21.730469 97.394531 21.730469 C 98.789062 21.730469 99.925781 22.867188 99.925781 24.1875 C 99.925781 25.511719 98.785156 26.648438 97.394531 26.648438 Z M 97.394531 26.648438 " fill-opacity="1" fill-rule="nonzero"/><g fill="#f59e2f" fill-opacity="1"><g transform="translate(16.534902, 71.059331)"><g><path d="M 20.328125 -19.984375 C 21.828125 -19.316406 22.578125 -18.507812 22.578125 -17.5625 C 22.578125 -17.101562 22.472656 -16.664062 22.265625 -16.25 C 22.066406 -15.84375 21.96875 -15.628906 21.96875 -15.609375 L 11.921875 6.859375 C 11.722656 7.347656 11.550781 7.71875 11.40625 7.96875 C 11.269531 8.226562 11.046875 8.472656 10.734375 8.703125 C 10.429688 8.929688 10.046875 9.046875 9.578125 9.046875 C 9.117188 9.046875 8.441406 8.851562 7.546875 8.46875 C 6.046875 7.8125 5.296875 7.019531 5.296875 6.09375 C 5.296875 5.476562 6.519531 2.550781 8.96875 -2.6875 L 1.34375 -15.53125 C 0.832031 -16.375 0.578125 -17 0.578125 -17.40625 C 0.578125 -18.226562 1.265625 -19.046875 2.640625 -19.859375 C 3.515625 -20.367188 4.191406 -20.625 4.671875 -20.625 C 5.160156 -20.625 5.554688 -20.519531 5.859375 -20.3125 C 6.171875 -20.113281 6.394531 -19.90625 6.53125 -19.6875 C 6.675781 -19.46875 7.378906 -18.28125 8.640625 -16.125 C 9.910156 -13.96875 11.117188 -11.953125 12.265625 -10.078125 C 12.398438 -10.492188 13.09375 -12.070312 14.34375 -14.8125 C 15.59375 -17.5625 16.257812 -19.023438 16.34375 -19.203125 C 16.4375 -19.390625 16.585938 -19.609375 16.796875 -19.859375 C 17.128906 -20.296875 17.59375 -20.515625 18.1875 -20.515625 C 18.789062 -20.515625 19.503906 -20.335938 20.328125 -19.984375 Z M 20.328125 -19.984375 "/></g></g></g><g fill="#f59e2f" fill-opacity="1"><g transform="translate(39.695247, 71.059331)"><g><path d="M 10.5 -0.078125 C 7.925781 -0.078125 5.785156 -1.050781 4.078125 -3 C 2.378906 -4.957031 1.53125 -7.34375 1.53125 -10.15625 L 1.53125 -16.875 C 1.53125 -17.488281 1.550781 -17.9375 1.59375 -18.21875 C 1.632812 -18.5 1.742188 -18.828125 1.921875 -19.203125 C 2.273438 -19.898438 3.269531 -20.25 4.90625 -20.25 C 6.695312 -20.25 7.742188 -19.757812 8.046875 -18.78125 C 8.203125 -18.375 8.28125 -17.722656 8.28125 -16.828125 L 8.28125 -10.125 C 8.28125 -9.070312 8.578125 -8.25 9.171875 -7.65625 C 9.773438 -7.070312 10.582031 -6.78125 11.59375 -6.78125 C 12.601562 -6.78125 13.421875 -7.085938 14.046875 -7.703125 C 14.679688 -8.316406 15 -9.125 15 -10.125 L 15 -16.90625 C 15 -17.5 15.015625 -17.941406 15.046875 -18.234375 C 15.085938 -18.523438 15.210938 -18.863281 15.421875 -19.25 C 15.742188 -19.914062 16.722656 -20.25 18.359375 -20.25 C 19.972656 -20.25 20.957031 -19.898438 21.3125 -19.203125 C 21.5 -18.828125 21.609375 -18.488281 21.640625 -18.1875 C 21.679688 -17.894531 21.703125 -17.457031 21.703125 -16.875 L 21.703125 -3.296875 C 21.703125 -2.734375 21.679688 -2.304688 21.640625 -2.015625 C 21.609375 -1.722656 21.488281 -1.394531 21.28125 -1.03125 C 20.894531 -0.363281 19.910156 -0.03125 18.328125 -0.03125 C 16.765625 -0.03125 15.804688 -0.335938 15.453125 -0.953125 C 15.191406 -1.390625 15.0625 -1.914062 15.0625 -2.53125 C 14.96875 -2.351562 14.738281 -2.097656 14.375 -1.765625 C 14.019531 -1.429688 13.675781 -1.148438 13.34375 -0.921875 C 12.476562 -0.359375 11.53125 -0.078125 10.5 -0.078125 Z M 10.5 -0.078125 "/></g></g></g><g fill="#f59e2f" fill-opacity="1"><g transform="translate(62.932274, 71.059331)"><g><path d="M 8.125 -17.515625 C 9.332031 -19.335938 10.78125 -20.25 12.46875 -20.25 C 15.070312 -20.25 17.015625 -19.132812 18.296875 -16.90625 C 18.578125 -17.289062 18.914062 -17.691406 19.3125 -18.109375 C 19.707031 -18.535156 20.335938 -19 21.203125 -19.5 C 22.066406 -20 22.960938 -20.25 23.890625 -20.25 C 25.929688 -20.25 27.640625 -19.460938 29.015625 -17.890625 C 30.398438 -16.316406 31.09375 -13.710938 31.09375 -10.078125 L 31.09375 -3.375 C 31.09375 -2.789062 31.070312 -2.347656 31.03125 -2.046875 C 31 -1.753906 30.878906 -1.414062 30.671875 -1.03125 C 30.335938 -0.34375 29.351562 0 27.71875 0 C 26.113281 0 25.128906 -0.359375 24.765625 -1.078125 C 24.585938 -1.460938 24.476562 -1.800781 24.4375 -2.09375 C 24.40625 -2.382812 24.390625 -2.820312 24.390625 -3.40625 L 24.390625 -10.125 C 24.390625 -12.34375 23.597656 -13.453125 22.015625 -13.453125 C 21.117188 -13.453125 20.507812 -13.15625 20.1875 -12.5625 C 19.863281 -11.976562 19.703125 -11.148438 19.703125 -10.078125 L 19.703125 -3.375 C 19.703125 -2.757812 19.679688 -2.3125 19.640625 -2.03125 C 19.609375 -1.75 19.488281 -1.414062 19.28125 -1.03125 C 18.925781 -0.34375 17.929688 0 16.296875 0 C 14.679688 0 13.695312 -0.359375 13.34375 -1.078125 C 13.164062 -1.460938 13.054688 -1.800781 13.015625 -2.09375 C 12.972656 -2.382812 12.953125 -2.820312 12.953125 -3.40625 L 12.953125 -10.125 C 12.953125 -12.34375 12.160156 -13.453125 10.578125 -13.453125 C 9.046875 -13.453125 8.28125 -12.34375 8.28125 -10.125 L 8.28125 -3.328125 C 8.28125 -2.742188 8.257812 -2.304688 8.21875 -2.015625 C 8.1875 -1.722656 8.066406 -1.382812 7.859375 -1 C 7.472656 -0.332031 6.476562 0 4.875 0 C 3.257812 0 2.273438 -0.34375 1.921875 -1.03125 C 1.742188 -1.414062 1.632812 -1.75 1.59375 -2.03125 C 1.550781 -2.3125 1.53125 -2.757812 1.53125 -3.375 L 1.53125 -16.875 C 1.53125 -17.457031 1.550781 -17.894531 1.59375 -18.1875 C 1.632812 -18.488281 1.753906 -18.816406 1.953125 -19.171875 C 2.335938 -19.859375 3.242188 -20.203125 4.671875 -20.203125 C 6.109375 -20.203125 7.039062 -19.972656 7.46875 -19.515625 C 7.90625 -19.054688 8.125 -18.390625 8.125 -17.515625 Z M 8.125 -17.515625 "/></g></g></g><g fill="#f59e2f" fill-opacity="1"><g transform="translate(95.563811, 71.059331)"><g><path d="M 8.125 -17.515625 C 9.332031 -19.335938 10.78125 -20.25 12.46875 -20.25 C 15.070312 -20.25 17.015625 -19.132812 18.296875 -16.90625 C 18.578125 -17.289062 18.914062 -17.691406 19.3125 -18.109375 C 19.707031 -18.535156 20.335938 -19 21.203125 -19.5 C 22.066406 -20 22.960938 -20.25 23.890625 -20.25 C 25.929688 -20.25 27.640625 -19.460938 29.015625 -17.890625 C 30.398438 -16.316406 31.09375 -13.710938 31.09375 -10.078125 L 31.09375 -3.375 C 31.09375 -2.789062 31.070312 -2.347656 31.03125 -2.046875 C 31 -1.753906 30.878906 -1.414062 30.671875 -1.03125 C 30.335938 -0.34375 29.351562 0 27.71875 0 C 26.113281 0 25.128906 -0.359375 24.765625 -1.078125 C 24.585938 -1.460938 24.476562 -1.800781 24.4375 -2.09375 C 24.40625 -2.382812 24.390625 -2.820312 24.390625 -3.40625 L 24.390625 -10.125 C 24.390625 -12.34375 23.597656 -13.453125 22.015625 -13.453125 C 21.117188 -13.453125 20.507812 -13.15625 20.1875 -12.5625 C 19.863281 -11.976562 19.703125 -11.148438 19.703125 -10.078125 L 19.703125 -3.375 C 19.703125 -2.757812 19.679688 -2.3125 19.640625 -2.03125 C 19.609375 -1.75 19.488281 -1.414062 19.28125 -1.03125 C 18.925781 -0.34375 17.929688 0 16.296875 0 C 14.679688 0 13.695312 -0.359375 13.34375 -1.078125 C 13.164062 -1.460938 13.054688 -1.800781 13.015625 -2.09375 C 12.972656 -2.382812 12.953125 -2.820312 12.953125 -3.40625 L 12.953125 -10.125 C 12.953125 -12.34375 12.160156 -13.453125 10.578125 -13.453125 C 9.046875 -13.453125 8.28125 -12.34375 8.28125 -10.125 L 8.28125 -3.328125 C 8.28125 -2.742188 8.257812 -2.304688 8.21875 -2.015625 C 8.1875 -1.722656 8.066406 -1.382812 7.859375 -1 C 7.472656 -0.332031 6.476562 0 4.875 0 C 3.257812 0 2.273438 -0.34375 1.921875 -1.03125 C 1.742188 -1.414062 1.632812 -1.75 1.59375 -2.03125 C 1.550781 -2.3125 1.53125 -2.757812 1.53125 -3.375 L 1.53125 -16.875 C 1.53125 -17.457031 1.550781 -17.894531 1.59375 -18.1875 C 1.632812 -18.488281 1.753906 -18.816406 1.953125 -19.171875 C 2.335938 -19.859375 3.242188 -20.203125 4.671875 -20.203125 C 6.109375 -20.203125 7.039062 -19.972656 7.46875 -19.515625 C 7.90625 -19.054688 8.125 -18.390625 8.125 -17.515625 Z M 8.125 -17.515625 "/></g></g></g><g fill="#f59e2f" fill-opacity="1"><g transform="translate(128.195348, 71.059331)"><g><path d="M 20.328125 -19.984375 C 21.828125 -19.316406 22.578125 -18.507812 22.578125 -17.5625 C 22.578125 -17.101562 22.472656 -16.664062 22.265625 -16.25 C 22.066406 -15.84375 21.96875 -15.628906 21.96875 -15.609375 L 11.921875 6.859375 C 11.722656 7.347656 11.550781 7.71875 11.40625 7.96875 C 11.269531 8.226562 11.046875 8.472656 10.734375 8.703125 C 10.429688 8.929688 10.046875 9.046875 9.578125 9.046875 C 9.117188 9.046875 8.441406 8.851562 7.546875 8.46875 C 6.046875 7.8125 5.296875 7.019531 5.296875 6.09375 C 5.296875 5.476562 6.519531 2.550781 8.96875 -2.6875 L 1.34375 -15.53125 C 0.832031 -16.375 0.578125 -17 0.578125 -17.40625 C 0.578125 -18.226562 1.265625 -19.046875 2.640625 -19.859375 C 3.515625 -20.367188 4.191406 -20.625 4.671875 -20.625 C 5.160156 -20.625 5.554688 -20.519531 5.859375 -20.3125 C 6.171875 -20.113281 6.394531 -19.90625 6.53125 -19.6875 C 6.675781 -19.46875 7.378906 -18.28125 8.640625 -16.125 C 9.910156 -13.96875 11.117188 -11.953125 12.265625 -10.078125 C 12.398438 -10.492188 13.09375 -12.070312 14.34375 -14.8125 C 15.59375 -17.5625 16.257812 -19.023438 16.34375 -19.203125 C 16.4375 -19.390625 16.585938 -19.609375 16.796875 -19.859375 C 17.128906 -20.296875 17.59375 -20.515625 18.1875 -20.515625 C 18.789062 -20.515625 19.503906 -20.335938 20.328125 -19.984375 Z M 20.328125 -19.984375 "/></g></g></g><g fill="#f59e2f" fill-opacity="1"><g transform="translate(151.355693, 71.059331)"><g><path d="M 1.90625 -5.84375 C 2.164062 -6.34375 2.554688 -6.679688 3.078125 -6.859375 C 3.609375 -7.035156 4.425781 -7.125 5.53125 -7.125 C 6.644531 -7.125 7.453125 -6.878906 7.953125 -6.390625 C 8.453125 -5.910156 8.703125 -5.148438 8.703125 -4.109375 L 8.703125 -3.484375 C 8.703125 -2.867188 8.679688 -2.414062 8.640625 -2.125 C 8.609375 -1.832031 8.488281 -1.484375 8.28125 -1.078125 C 7.875 -0.335938 6.894531 0.03125 5.34375 0.03125 C 3.800781 0.03125 2.78125 -0.210938 2.28125 -0.703125 C 1.78125 -1.203125 1.53125 -2.171875 1.53125 -3.609375 C 1.53125 -4.597656 1.65625 -5.34375 1.90625 -5.84375 Z M 7.046875 -10.3125 C 6.566406 -10.1875 5.914062 -10.125 5.09375 -10.125 C 4.28125 -10.125 3.628906 -10.1875 3.140625 -10.3125 C 2.660156 -10.4375 2.320312 -10.664062 2.125 -11 C 1.9375 -11.332031 1.820312 -11.625 1.78125 -11.875 C 1.738281 -12.132812 1.71875 -12.535156 1.71875 -13.078125 L 1.71875 -25.234375 C 1.71875 -25.765625 1.738281 -26.164062 1.78125 -26.4375 C 1.820312 -26.707031 1.941406 -27.007812 2.140625 -27.34375 C 2.347656 -27.675781 2.691406 -27.910156 3.171875 -28.046875 C 3.660156 -28.191406 4.3125 -28.265625 5.125 -28.265625 C 5.945312 -28.265625 6.601562 -28.191406 7.09375 -28.046875 C 7.582031 -27.910156 7.921875 -27.664062 8.109375 -27.3125 C 8.296875 -26.96875 8.410156 -26.660156 8.453125 -26.390625 C 8.492188 -26.128906 8.515625 -25.726562 8.515625 -25.1875 L 8.515625 -13.03125 C 8.515625 -12.5 8.492188 -12.101562 8.453125 -11.84375 C 8.410156 -11.59375 8.285156 -11.304688 8.078125 -10.984375 C 7.878906 -10.660156 7.535156 -10.4375 7.046875 -10.3125 Z M 7.046875 -10.3125 "/></g></g></g><g fill="#a6a6a6" fill-opacity="1"><g transform="translate(-0.000000000000010658, 98.730499)"><g><path d="M 2.90625 0.0625 C 2.382812 0.0625 1.890625 -0.0078125 1.421875 -0.15625 C 0.953125 -0.3125 0.582031 -0.5 0.3125 -0.71875 L 0.703125 -1.40625 C 0.972656 -1.195312 1.304688 -1.023438 1.703125 -0.890625 C 2.109375 -0.753906 2.53125 -0.6875 2.96875 -0.6875 C 3.550781 -0.6875 3.976562 -0.773438 4.25 -0.953125 C 4.53125 -1.140625 4.671875 -1.398438 4.671875 -1.734375 C 4.671875 -1.960938 4.59375 -2.144531 4.4375 -2.28125 C 4.289062 -2.414062 4.097656 -2.515625 3.859375 -2.578125 C 3.628906 -2.648438 3.320312 -2.71875 2.9375 -2.78125 C 2.414062 -2.882812 1.992188 -2.984375 1.671875 -3.078125 C 1.359375 -3.179688 1.09375 -3.351562 0.875 -3.59375 C 0.65625 -3.832031 0.546875 -4.164062 0.546875 -4.59375 C 0.546875 -5.132812 0.765625 -5.570312 1.203125 -5.90625 C 1.648438 -6.25 2.269531 -6.421875 3.0625 -6.421875 C 3.476562 -6.421875 3.890625 -6.363281 4.296875 -6.25 C 4.710938 -6.144531 5.050781 -6.003906 5.3125 -5.828125 L 4.9375 -5.140625 C 4.414062 -5.492188 3.789062 -5.671875 3.0625 -5.671875 C 2.507812 -5.671875 2.09375 -5.570312 1.8125 -5.375 C 1.539062 -5.1875 1.40625 -4.9375 1.40625 -4.625 C 1.40625 -4.382812 1.484375 -4.191406 1.640625 -4.046875 C 1.796875 -3.898438 1.988281 -3.789062 2.21875 -3.71875 C 2.457031 -3.65625 2.785156 -3.585938 3.203125 -3.515625 C 3.703125 -3.410156 4.101562 -3.3125 4.40625 -3.21875 C 4.71875 -3.125 4.984375 -2.957031 5.203125 -2.71875 C 5.421875 -2.488281 5.53125 -2.164062 5.53125 -1.75 C 5.53125 -1.195312 5.296875 -0.753906 4.828125 -0.421875 C 4.367188 -0.0976562 3.726562 0.0625 2.90625 0.0625 Z M 2.90625 0.0625 "/></g></g></g><g fill="#a6a6a6" fill-opacity="1"><g transform="translate(5.922491, 98.730499)"><g><path d="M 4.546875 -0.390625 C 4.390625 -0.242188 4.191406 -0.128906 3.953125 -0.046875 C 3.710938 0.0234375 3.460938 0.0625 3.203125 0.0625 C 2.609375 0.0625 2.148438 -0.0976562 1.828125 -0.421875 C 1.503906 -0.742188 1.34375 -1.203125 1.34375 -1.796875 L 1.34375 -5.640625 L 0.203125 -5.640625 L 0.203125 -6.375 L 1.34375 -6.375 L 1.34375 -7.765625 L 2.203125 -7.765625 L 2.203125 -6.375 L 4.140625 -6.375 L 4.140625 -5.640625 L 2.203125 -5.640625 L 2.203125 -1.84375 C 2.203125 -1.457031 2.296875 -1.164062 2.484375 -0.96875 C 2.671875 -0.769531 2.945312 -0.671875 3.3125 -0.671875 C 3.488281 -0.671875 3.65625 -0.695312 3.8125 -0.75 C 3.976562 -0.8125 4.125 -0.894531 4.25 -1 Z M 4.546875 -0.390625 "/></g></g></g><g fill="#a6a6a6" fill-opacity="1"><g transform="translate(10.839733, 98.730499)"><g><path d="M 3.796875 0.0625 C 3.179688 0.0625 2.628906 -0.078125 2.140625 -0.359375 C 1.648438 -0.640625 1.265625 -1.023438 0.984375 -1.515625 C 0.703125 -2.003906 0.5625 -2.5625 0.5625 -3.1875 C 0.5625 -3.800781 0.703125 -4.351562 0.984375 -4.84375 C 1.265625 -5.34375 1.648438 -5.726562 2.140625 -6 C 2.628906 -6.28125 3.179688 -6.421875 3.796875 -6.421875 C 4.410156 -6.421875 4.960938 -6.28125 5.453125 -6 C 5.953125 -5.726562 6.335938 -5.34375 6.609375 -4.84375 C 6.890625 -4.351562 7.03125 -3.800781 7.03125 -3.1875 C 7.03125 -2.5625 6.890625 -2.003906 6.609375 -1.515625 C 6.335938 -1.023438 5.953125 -0.640625 5.453125 -0.359375 C 4.960938 -0.078125 4.410156 0.0625 3.796875 0.0625 Z M 3.796875 -0.703125 C 4.253906 -0.703125 4.660156 -0.800781 5.015625 -1 C 5.378906 -1.207031 5.660156 -1.5 5.859375 -1.875 C 6.054688 -2.257812 6.15625 -2.695312 6.15625 -3.1875 C 6.15625 -3.664062 6.054688 -4.09375 5.859375 -4.46875 C 5.660156 -4.851562 5.378906 -5.148438 5.015625 -5.359375 C 4.660156 -5.566406 4.253906 -5.671875 3.796875 -5.671875 C 3.347656 -5.671875 2.941406 -5.566406 2.578125 -5.359375 C 2.222656 -5.148438 1.941406 -4.851562 1.734375 -4.46875 C 1.523438 -4.09375 1.421875 -3.664062 1.421875 -3.1875 C 1.421875 -2.695312 1.523438 -2.257812 1.734375 -1.875 C 1.941406 -1.5 2.222656 -1.207031 2.578125 -1 C 2.941406 -0.800781 3.347656 -0.703125 3.796875 -0.703125 Z M 3.796875 -0.703125 "/></g></g></g><g clip-path="url(#id1)"><g fill="#a6a6a6" fill-opacity="1"><g transform="translate(18.433591, 98.730499)"><g><path d="M 4.484375 -6.421875 C 5.078125 -6.421875 5.613281 -6.285156 6.09375 -6.015625 C 6.582031 -5.742188 6.960938 -5.359375 7.234375 -4.859375 C 7.515625 -4.367188 7.65625 -3.8125 7.65625 -3.1875 C 7.65625 -2.550781 7.515625 -1.984375 7.234375 -1.484375 C 6.960938 -0.992188 6.585938 -0.613281 6.109375 -0.34375 C 5.628906 -0.0703125 5.085938 0.0625 4.484375 0.0625 C 3.960938 0.0625 3.492188 -0.0390625 3.078125 -0.25 C 2.660156 -0.46875 2.320312 -0.785156 2.0625 -1.203125 L 2.0625 2.34375 L 1.203125 2.34375 L 1.203125 -6.375 L 2.015625 -6.375 L 2.015625 -5.109375 C 2.273438 -5.523438 2.617188 -5.847656 3.046875 -6.078125 C 3.472656 -6.304688 3.953125 -6.421875 4.484375 -6.421875 Z M 4.421875 -0.703125 C 4.859375 -0.703125 5.257812 -0.800781 5.625 -1 C 5.988281 -1.207031 6.273438 -1.5 6.484375 -1.875 C 6.691406 -2.257812 6.796875 -2.695312 6.796875 -3.1875 C 6.796875 -3.664062 6.691406 -4.09375 6.484375 -4.46875 C 6.273438 -4.84375 5.988281 -5.132812 5.625 -5.34375 C 5.257812 -5.5625 4.859375 -5.671875 4.421875 -5.671875 C 3.960938 -5.671875 3.550781 -5.5625 3.1875 -5.34375 C 2.832031 -5.132812 2.550781 -4.84375 2.34375 -4.46875 C 2.144531 -4.09375 2.046875 -3.664062 2.046875 -3.1875 C 2.046875 -2.695312 2.144531 -2.257812 2.34375 -1.875 C 2.550781 -1.5 2.832031 -1.207031 3.1875 -1 C 3.550781 -0.800781 3.960938 -0.703125 4.421875 -0.703125 Z M 4.421875 -0.703125 "/></g></g></g></g><g fill="#a6a6a6" fill-opacity="1"><g transform="translate(26.645138, 98.730499)"><g/></g></g><g fill="#a6a6a6" fill-opacity="1"><g transform="translate(29.818326, 98.730499)"><g><path d="M 2.90625 0.0625 C 2.382812 0.0625 1.890625 -0.0078125 1.421875 -0.15625 C 0.953125 -0.3125 0.582031 -0.5 0.3125 -0.71875 L 0.703125 -1.40625 C 0.972656 -1.195312 1.304688 -1.023438 1.703125 -0.890625 C 2.109375 -0.753906 2.53125 -0.6875 2.96875 -0.6875 C 3.550781 -0.6875 3.976562 -0.773438 4.25 -0.953125 C 4.53125 -1.140625 4.671875 -1.398438 4.671875 -1.734375 C 4.671875 -1.960938 4.59375 -2.144531 4.4375 -2.28125 C 4.289062 -2.414062 4.097656 -2.515625 3.859375 -2.578125 C 3.628906 -2.648438 3.320312 -2.71875 2.9375 -2.78125 C 2.414062 -2.882812 1.992188 -2.984375 1.671875 -3.078125 C 1.359375 -3.179688 1.09375 -3.351562 0.875 -3.59375 C 0.65625 -3.832031 0.546875 -4.164062 0.546875 -4.59375 C 0.546875 -5.132812 0.765625 -5.570312 1.203125 -5.90625 C 1.648438 -6.25 2.269531 -6.421875 3.0625 -6.421875 C 3.476562 -6.421875 3.890625 -6.363281 4.296875 -6.25 C 4.710938 -6.144531 5.050781 -6.003906 5.3125 -5.828125 L 4.9375 -5.140625 C 4.414062 -5.492188 3.789062 -5.671875 3.0625 -5.671875 C 2.507812 -5.671875 2.09375 -5.570312 1.8125 -5.375 C 1.539062 -5.1875 1.40625 -4.9375 1.40625 -4.625 C 1.40625 -4.382812 1.484375 -4.191406 1.640625 -4.046875 C 1.796875 -3.898438 1.988281 -3.789062 2.21875 -3.71875 C 2.457031 -3.65625 2.785156 -3.585938 3.203125 -3.515625 C 3.703125 -3.410156 4.101562 -3.3125 4.40625 -3.21875 C 4.71875 -3.125 4.984375 -2.957031 5.203125 -2.71875 C 5.421875 -2.488281 5.53125 -2.164062 5.53125 -1.75 C 5.53125 -1.195312 5.296875 -0.753906 4.828125 -0.421875 C 4.367188 -0.0976562 3.726562 0.0625 2.90625 0.0625 Z M 2.90625 0.0625 "/></g></g></g><g fill="#a6a6a6" fill-opacity="1"><g transform="translate(35.740817, 98.730499)"><g><path d="M 6.75 -2.921875 L 1.421875 -2.921875 C 1.460938 -2.253906 1.710938 -1.71875 2.171875 -1.3125 C 2.640625 -0.90625 3.222656 -0.703125 3.921875 -0.703125 C 4.316406 -0.703125 4.679688 -0.769531 5.015625 -0.90625 C 5.347656 -1.050781 5.632812 -1.257812 5.875 -1.53125 L 6.359375 -0.984375 C 6.078125 -0.640625 5.722656 -0.378906 5.296875 -0.203125 C 4.867188 -0.0234375 4.40625 0.0625 3.90625 0.0625 C 3.25 0.0625 2.664062 -0.078125 2.15625 -0.359375 C 1.65625 -0.640625 1.265625 -1.023438 0.984375 -1.515625 C 0.703125 -2.003906 0.5625 -2.5625 0.5625 -3.1875 C 0.5625 -3.800781 0.695312 -4.351562 0.96875 -4.84375 C 1.238281 -5.34375 1.609375 -5.726562 2.078125 -6 C 2.546875 -6.28125 3.078125 -6.421875 3.671875 -6.421875 C 4.253906 -6.421875 4.78125 -6.28125 5.25 -6 C 5.71875 -5.726562 6.082031 -5.347656 6.34375 -4.859375 C 6.613281 -4.367188 6.75 -3.8125 6.75 -3.1875 Z M 3.671875 -5.671875 C 3.054688 -5.671875 2.539062 -5.472656 2.125 -5.078125 C 1.707031 -4.691406 1.472656 -4.1875 1.421875 -3.5625 L 5.9375 -3.5625 C 5.875 -4.1875 5.632812 -4.691406 5.21875 -5.078125 C 4.800781 -5.472656 4.285156 -5.671875 3.671875 -5.671875 Z M 3.671875 -5.671875 "/></g></g></g><g fill="#a6a6a6" fill-opacity="1"><g transform="translate(43.056115, 98.730499)"><g><path d="M 3.421875 -6.421875 C 4.253906 -6.421875 4.890625 -6.210938 5.328125 -5.796875 C 5.773438 -5.378906 6 -4.765625 6 -3.953125 L 6 0 L 5.1875 0 L 5.1875 -1 C 4.988281 -0.664062 4.703125 -0.40625 4.328125 -0.21875 C 3.953125 -0.03125 3.503906 0.0625 2.984375 0.0625 C 2.273438 0.0625 1.710938 -0.101562 1.296875 -0.4375 C 0.878906 -0.78125 0.671875 -1.234375 0.671875 -1.796875 C 0.671875 -2.335938 0.863281 -2.769531 1.25 -3.09375 C 1.644531 -3.425781 2.269531 -3.59375 3.125 -3.59375 L 5.140625 -3.59375 L 5.140625 -3.984375 C 5.140625 -4.535156 4.984375 -4.953125 4.671875 -5.234375 C 4.367188 -5.523438 3.925781 -5.671875 3.34375 -5.671875 C 2.9375 -5.671875 2.546875 -5.601562 2.171875 -5.46875 C 1.804688 -5.332031 1.488281 -5.148438 1.21875 -4.921875 L 0.828125 -5.5625 C 1.148438 -5.832031 1.535156 -6.039062 1.984375 -6.1875 C 2.441406 -6.34375 2.921875 -6.421875 3.421875 -6.421875 Z M 3.125 -0.625 C 3.601562 -0.625 4.015625 -0.734375 4.359375 -0.953125 C 4.710938 -1.171875 4.972656 -1.488281 5.140625 -1.90625 L 5.140625 -2.953125 L 3.140625 -2.953125 C 2.054688 -2.953125 1.515625 -2.570312 1.515625 -1.8125 C 1.515625 -1.445312 1.65625 -1.15625 1.9375 -0.9375 C 2.21875 -0.726562 2.613281 -0.625 3.125 -0.625 Z M 3.125 -0.625 "/></g></g></g><g fill="#a6a6a6" fill-opacity="1"><g transform="translate(50.201856, 98.730499)"><g><path d="M 2.015625 -5.125 C 2.222656 -5.550781 2.523438 -5.875 2.921875 -6.09375 C 3.328125 -6.3125 3.820312 -6.421875 4.40625 -6.421875 L 4.40625 -5.578125 L 4.203125 -5.59375 C 3.535156 -5.59375 3.007812 -5.382812 2.625 -4.96875 C 2.25 -4.5625 2.0625 -3.988281 2.0625 -3.25 L 2.0625 0 L 1.203125 0 L 1.203125 -6.375 L 2.015625 -6.375 Z M 2.015625 -5.125 "/></g></g></g><g fill="#a6a6a6" fill-opacity="1"><g transform="translate(55.058539, 98.730499)"><g><path d="M 3.84375 0.0625 C 3.207031 0.0625 2.640625 -0.0703125 2.140625 -0.34375 C 1.648438 -0.625 1.265625 -1.007812 0.984375 -1.5 C 0.703125 -2 0.5625 -2.5625 0.5625 -3.1875 C 0.5625 -3.800781 0.703125 -4.351562 0.984375 -4.84375 C 1.265625 -5.34375 1.648438 -5.726562 2.140625 -6 C 2.640625 -6.28125 3.207031 -6.421875 3.84375 -6.421875 C 4.382812 -6.421875 4.867188 -6.3125 5.296875 -6.09375 C 5.734375 -5.882812 6.078125 -5.570312 6.328125 -5.15625 L 5.6875 -4.71875 C 5.476562 -5.03125 5.210938 -5.265625 4.890625 -5.421875 C 4.566406 -5.585938 4.21875 -5.671875 3.84375 -5.671875 C 3.375 -5.671875 2.957031 -5.566406 2.59375 -5.359375 C 2.226562 -5.148438 1.941406 -4.851562 1.734375 -4.46875 C 1.523438 -4.09375 1.421875 -3.664062 1.421875 -3.1875 C 1.421875 -2.695312 1.523438 -2.257812 1.734375 -1.875 C 1.941406 -1.5 2.226562 -1.207031 2.59375 -1 C 2.957031 -0.800781 3.375 -0.703125 3.84375 -0.703125 C 4.21875 -0.703125 4.566406 -0.773438 4.890625 -0.921875 C 5.210938 -1.078125 5.476562 -1.316406 5.6875 -1.640625 L 6.328125 -1.203125 C 6.078125 -0.785156 5.734375 -0.46875 5.296875 -0.25 C 4.867188 -0.0390625 4.382812 0.0625 3.84375 0.0625 Z M 3.84375 0.0625 "/></g></g></g><g fill="#a6a6a6" fill-opacity="1"><g transform="translate(61.877266, 98.730499)"><g><path d="M 4.4375 -6.421875 C 5.238281 -6.421875 5.875 -6.1875 6.34375 -5.71875 C 6.820312 -5.257812 7.0625 -4.582031 7.0625 -3.6875 L 7.0625 0 L 6.203125 0 L 6.203125 -3.609375 C 6.203125 -4.265625 6.035156 -4.765625 5.703125 -5.109375 C 5.367188 -5.460938 4.894531 -5.640625 4.28125 -5.640625 C 3.59375 -5.640625 3.050781 -5.4375 2.65625 -5.03125 C 2.257812 -4.625 2.0625 -4.0625 2.0625 -3.34375 L 2.0625 0 L 1.203125 0 L 1.203125 -8.984375 L 2.0625 -8.984375 L 2.0625 -5.25 C 2.289062 -5.625 2.609375 -5.910156 3.015625 -6.109375 C 3.429688 -6.316406 3.90625 -6.421875 4.4375 -6.421875 Z M 4.4375 -6.421875 "/></g></g></g><g fill="#a6a6a6" fill-opacity="1"><g transform="translate(70.076697, 98.730499)"><g><path d="M 1.203125 -6.375 L 2.0625 -6.375 L 2.0625 0 L 1.203125 0 Z M 1.640625 -7.765625 C 1.453125 -7.765625 1.296875 -7.820312 1.171875 -7.9375 C 1.054688 -8.0625 1 -8.207031 1 -8.375 C 1 -8.539062 1.054688 -8.679688 1.171875 -8.796875 C 1.296875 -8.921875 1.453125 -8.984375 1.640625 -8.984375 C 1.816406 -8.984375 1.960938 -8.925781 2.078125 -8.8125 C 2.203125 -8.695312 2.265625 -8.554688 2.265625 -8.390625 C 2.265625 -8.210938 2.203125 -8.0625 2.078125 -7.9375 C 1.960938 -7.820312 1.816406 -7.765625 1.640625 -7.765625 Z M 1.640625 -7.765625 "/></g></g></g><g fill="#a6a6a6" fill-opacity="1"><g transform="translate(73.334676, 98.730499)"><g><path d="M 4.4375 -6.421875 C 5.238281 -6.421875 5.875 -6.1875 6.34375 -5.71875 C 6.820312 -5.257812 7.0625 -4.582031 7.0625 -3.6875 L 7.0625 0 L 6.203125 0 L 6.203125 -3.609375 C 6.203125 -4.265625 6.035156 -4.765625 5.703125 -5.109375 C 5.367188 -5.460938 4.894531 -5.640625 4.28125 -5.640625 C 3.59375 -5.640625 3.050781 -5.4375 2.65625 -5.03125 C 2.257812 -4.625 2.0625 -4.0625 2.0625 -3.34375 L 2.0625 0 L 1.203125 0 L 1.203125 -6.375 L 2.015625 -6.375 L 2.015625 -5.1875 C 2.253906 -5.582031 2.582031 -5.882812 3 -6.09375 C 3.414062 -6.3125 3.894531 -6.421875 4.4375 -6.421875 Z M 4.4375 -6.421875 "/></g></g></g><g clip-path="url(#id2)"><g fill="#a6a6a6" fill-opacity="1"><g transform="translate(81.534107, 98.730499)"><g><path d="M 7.09375 -6.375 L 7.09375 -0.78125 C 7.09375 0.300781 6.828125 1.101562 6.296875 1.625 C 5.773438 2.144531 4.976562 2.40625 3.90625 2.40625 C 3.320312 2.40625 2.765625 2.316406 2.234375 2.140625 C 1.703125 1.972656 1.269531 1.734375 0.9375 1.421875 L 1.375 0.78125 C 1.6875 1.050781 2.0625 1.257812 2.5 1.40625 C 2.9375 1.5625 3.398438 1.640625 3.890625 1.640625 C 4.691406 1.640625 5.28125 1.453125 5.65625 1.078125 C 6.039062 0.703125 6.234375 0.117188 6.234375 -0.671875 L 6.234375 -1.484375 C 5.972656 -1.078125 5.625 -0.765625 5.1875 -0.546875 C 4.757812 -0.335938 4.28125 -0.234375 3.75 -0.234375 C 3.15625 -0.234375 2.613281 -0.363281 2.125 -0.625 C 1.632812 -0.894531 1.25 -1.265625 0.96875 -1.734375 C 0.695312 -2.210938 0.5625 -2.75 0.5625 -3.34375 C 0.5625 -3.9375 0.695312 -4.46875 0.96875 -4.9375 C 1.25 -5.40625 1.628906 -5.769531 2.109375 -6.03125 C 2.597656 -6.289062 3.144531 -6.421875 3.75 -6.421875 C 4.289062 -6.421875 4.78125 -6.3125 5.21875 -6.09375 C 5.65625 -5.875 6.003906 -5.554688 6.265625 -5.140625 L 6.265625 -6.375 Z M 3.84375 -1 C 4.300781 -1 4.710938 -1.097656 5.078125 -1.296875 C 5.453125 -1.492188 5.742188 -1.769531 5.953125 -2.125 C 6.160156 -2.476562 6.265625 -2.882812 6.265625 -3.34375 C 6.265625 -3.789062 6.160156 -4.191406 5.953125 -4.546875 C 5.742188 -4.898438 5.457031 -5.175781 5.09375 -5.375 C 4.726562 -5.570312 4.3125 -5.671875 3.84375 -5.671875 C 3.375 -5.671875 2.957031 -5.570312 2.59375 -5.375 C 2.226562 -5.175781 1.941406 -4.898438 1.734375 -4.546875 C 1.523438 -4.191406 1.421875 -3.789062 1.421875 -3.34375 C 1.421875 -2.882812 1.523438 -2.476562 1.734375 -2.125 C 1.941406 -1.769531 2.226562 -1.492188 2.59375 -1.296875 C 2.957031 -1.097656 3.375 -1 3.84375 -1 Z M 3.84375 -1 "/></g></g></g></g><g fill="#a6a6a6" fill-opacity="1"><g transform="translate(89.842549, 98.730499)"><g><path d="M 1.28125 0.0625 C 1.101562 0.0625 0.953125 0 0.828125 -0.125 C 0.703125 -0.257812 0.640625 -0.421875 0.640625 -0.609375 C 0.640625 -0.796875 0.703125 -0.953125 0.828125 -1.078125 C 0.953125 -1.203125 1.101562 -1.265625 1.28125 -1.265625 C 1.457031 -1.265625 1.609375 -1.203125 1.734375 -1.078125 C 1.867188 -0.953125 1.9375 -0.796875 1.9375 -0.609375 C 1.9375 -0.421875 1.867188 -0.257812 1.734375 -0.125 C 1.609375 0 1.457031 0.0625 1.28125 0.0625 Z M 1.28125 0.0625 "/></g></g></g><g fill="#a6a6a6" fill-opacity="1"><g transform="translate(92.410177, 98.730499)"><g/></g></g><g fill="#a6a6a6" fill-opacity="1"><g transform="translate(95.583365, 98.730499)"><g><path d="M 2.90625 0.0625 C 2.382812 0.0625 1.890625 -0.0078125 1.421875 -0.15625 C 0.953125 -0.3125 0.582031 -0.5 0.3125 -0.71875 L 0.703125 -1.40625 C 0.972656 -1.195312 1.304688 -1.023438 1.703125 -0.890625 C 2.109375 -0.753906 2.53125 -0.6875 2.96875 -0.6875 C 3.550781 -0.6875 3.976562 -0.773438 4.25 -0.953125 C 4.53125 -1.140625 4.671875 -1.398438 4.671875 -1.734375 C 4.671875 -1.960938 4.59375 -2.144531 4.4375 -2.28125 C 4.289062 -2.414062 4.097656 -2.515625 3.859375 -2.578125 C 3.628906 -2.648438 3.320312 -2.71875 2.9375 -2.78125 C 2.414062 -2.882812 1.992188 -2.984375 1.671875 -3.078125 C 1.359375 -3.179688 1.09375 -3.351562 0.875 -3.59375 C 0.65625 -3.832031 0.546875 -4.164062 0.546875 -4.59375 C 0.546875 -5.132812 0.765625 -5.570312 1.203125 -5.90625 C 1.648438 -6.25 2.269531 -6.421875 3.0625 -6.421875 C 3.476562 -6.421875 3.890625 -6.363281 4.296875 -6.25 C 4.710938 -6.144531 5.050781 -6.003906 5.3125 -5.828125 L 4.9375 -5.140625 C 4.414062 -5.492188 3.789062 -5.671875 3.0625 -5.671875 C 2.507812 -5.671875 2.09375 -5.570312 1.8125 -5.375 C 1.539062 -5.1875 1.40625 -4.9375 1.40625 -4.625 C 1.40625 -4.382812 1.484375 -4.191406 1.640625 -4.046875 C 1.796875 -3.898438 1.988281 -3.789062 2.21875 -3.71875 C 2.457031 -3.65625 2.785156 -3.585938 3.203125 -3.515625 C 3.703125 -3.410156 4.101562 -3.3125 4.40625 -3.21875 C 4.71875 -3.125 4.984375 -2.957031 5.203125 -2.71875 C 5.421875 -2.488281 5.53125 -2.164062 5.53125 -1.75 C 5.53125 -1.195312 5.296875 -0.753906 4.828125 -0.421875 C 4.367188 -0.0976562 3.726562 0.0625 2.90625 0.0625 Z M 2.90625 0.0625 "/></g></g></g><g fill="#a6a6a6" fill-opacity="1"><g transform="translate(101.505855, 98.730499)"><g><path d="M 4.546875 -0.390625 C 4.390625 -0.242188 4.191406 -0.128906 3.953125 -0.046875 C 3.710938 0.0234375 3.460938 0.0625 3.203125 0.0625 C 2.609375 0.0625 2.148438 -0.0976562 1.828125 -0.421875 C 1.503906 -0.742188 1.34375 -1.203125 1.34375 -1.796875 L 1.34375 -5.640625 L 0.203125 -5.640625 L 0.203125 -6.375 L 1.34375 -6.375 L 1.34375 -7.765625 L 2.203125 -7.765625 L 2.203125 -6.375 L 4.140625 -6.375 L 4.140625 -5.640625 L 2.203125 -5.640625 L 2.203125 -1.84375 C 2.203125 -1.457031 2.296875 -1.164062 2.484375 -0.96875 C 2.671875 -0.769531 2.945312 -0.671875 3.3125 -0.671875 C 3.488281 -0.671875 3.65625 -0.695312 3.8125 -0.75 C 3.976562 -0.8125 4.125 -0.894531 4.25 -1 Z M 4.546875 -0.390625 "/></g></g></g><g fill="#a6a6a6" fill-opacity="1"><g transform="translate(106.423097, 98.730499)"><g><path d="M 3.421875 -6.421875 C 4.253906 -6.421875 4.890625 -6.210938 5.328125 -5.796875 C 5.773438 -5.378906 6 -4.765625 6 -3.953125 L 6 0 L 5.1875 0 L 5.1875 -1 C 4.988281 -0.664062 4.703125 -0.40625 4.328125 -0.21875 C 3.953125 -0.03125 3.503906 0.0625 2.984375 0.0625 C 2.273438 0.0625 1.710938 -0.101562 1.296875 -0.4375 C 0.878906 -0.78125 0.671875 -1.234375 0.671875 -1.796875 C 0.671875 -2.335938 0.863281 -2.769531 1.25 -3.09375 C 1.644531 -3.425781 2.269531 -3.59375 3.125 -3.59375 L 5.140625 -3.59375 L 5.140625 -3.984375 C 5.140625 -4.535156 4.984375 -4.953125 4.671875 -5.234375 C 4.367188 -5.523438 3.925781 -5.671875 3.34375 -5.671875 C 2.9375 -5.671875 2.546875 -5.601562 2.171875 -5.46875 C 1.804688 -5.332031 1.488281 -5.148438 1.21875 -4.921875 L 0.828125 -5.5625 C 1.148438 -5.832031 1.535156 -6.039062 1.984375 -6.1875 C 2.441406 -6.34375 2.921875 -6.421875 3.421875 -6.421875 Z M 3.125 -0.625 C 3.601562 -0.625 4.015625 -0.734375 4.359375 -0.953125 C 4.710938 -1.171875 4.972656 -1.488281 5.140625 -1.90625 L 5.140625 -2.953125 L 3.140625 -2.953125 C 2.054688 -2.953125 1.515625 -2.570312 1.515625 -1.8125 C 1.515625 -1.445312 1.65625 -1.15625 1.9375 -0.9375 C 2.21875 -0.726562 2.613281 -0.625 3.125 -0.625 Z M 3.125 -0.625 "/></g></g></g><g fill="#a6a6a6" fill-opacity="1"><g transform="translate(113.568837, 98.730499)"><g><path d="M 2.015625 -5.125 C 2.222656 -5.550781 2.523438 -5.875 2.921875 -6.09375 C 3.328125 -6.3125 3.820312 -6.421875 4.40625 -6.421875 L 4.40625 -5.578125 L 4.203125 -5.59375 C 3.535156 -5.59375 3.007812 -5.382812 2.625 -4.96875 C 2.25 -4.5625 2.0625 -3.988281 2.0625 -3.25 L 2.0625 0 L 1.203125 0 L 1.203125 -6.375 L 2.015625 -6.375 Z M 2.015625 -5.125 "/></g></g></g><g fill="#a6a6a6" fill-opacity="1"><g transform="translate(118.425521, 98.730499)"><g><path d="M 4.546875 -0.390625 C 4.390625 -0.242188 4.191406 -0.128906 3.953125 -0.046875 C 3.710938 0.0234375 3.460938 0.0625 3.203125 0.0625 C 2.609375 0.0625 2.148438 -0.0976562 1.828125 -0.421875 C 1.503906 -0.742188 1.34375 -1.203125 1.34375 -1.796875 L 1.34375 -5.640625 L 0.203125 -5.640625 L 0.203125 -6.375 L 1.34375 -6.375 L 1.34375 -7.765625 L 2.203125 -7.765625 L 2.203125 -6.375 L 4.140625 -6.375 L 4.140625 -5.640625 L 2.203125 -5.640625 L 2.203125 -1.84375 C 2.203125 -1.457031 2.296875 -1.164062 2.484375 -0.96875 C 2.671875 -0.769531 2.945312 -0.671875 3.3125 -0.671875 C 3.488281 -0.671875 3.65625 -0.695312 3.8125 -0.75 C 3.976562 -0.8125 4.125 -0.894531 4.25 -1 Z M 4.546875 -0.390625 "/></g></g></g><g fill="#a6a6a6" fill-opacity="1"><g transform="translate(123.342763, 98.730499)"><g/></g></g><g fill="#a6a6a6" fill-opacity="1"><g transform="translate(126.515951, 98.730499)"><g><path d="M 3.84375 0.0625 C 3.207031 0.0625 2.640625 -0.0703125 2.140625 -0.34375 C 1.648438 -0.625 1.265625 -1.007812 0.984375 -1.5 C 0.703125 -2 0.5625 -2.5625 0.5625 -3.1875 C 0.5625 -3.800781 0.703125 -4.351562 0.984375 -4.84375 C 1.265625 -5.34375 1.648438 -5.726562 2.140625 -6 C 2.640625 -6.28125 3.207031 -6.421875 3.84375 -6.421875 C 4.382812 -6.421875 4.867188 -6.3125 5.296875 -6.09375 C 5.734375 -5.882812 6.078125 -5.570312 6.328125 -5.15625 L 5.6875 -4.71875 C 5.476562 -5.03125 5.210938 -5.265625 4.890625 -5.421875 C 4.566406 -5.585938 4.21875 -5.671875 3.84375 -5.671875 C 3.375 -5.671875 2.957031 -5.566406 2.59375 -5.359375 C 2.226562 -5.148438 1.941406 -4.851562 1.734375 -4.46875 C 1.523438 -4.09375 1.421875 -3.664062 1.421875 -3.1875 C 1.421875 -2.695312 1.523438 -2.257812 1.734375 -1.875 C 1.941406 -1.5 2.226562 -1.207031 2.59375 -1 C 2.957031 -0.800781 3.375 -0.703125 3.84375 -0.703125 C 4.21875 -0.703125 4.566406 -0.773438 4.890625 -0.921875 C 5.210938 -1.078125 5.476562 -1.316406 5.6875 -1.640625 L 6.328125 -1.203125 C 6.078125 -0.785156 5.734375 -0.46875 5.296875 -0.25 C 4.867188 -0.0390625 4.382812 0.0625 3.84375 0.0625 Z M 3.84375 0.0625 "/></g></g></g><g fill="#a6a6a6" fill-opacity="1"><g transform="translate(133.334678, 98.730499)"><g><path d="M 3.796875 0.0625 C 3.179688 0.0625 2.628906 -0.078125 2.140625 -0.359375 C 1.648438 -0.640625 1.265625 -1.023438 0.984375 -1.515625 C 0.703125 -2.003906 0.5625 -2.5625 0.5625 -3.1875 C 0.5625 -3.800781 0.703125 -4.351562 0.984375 -4.84375 C 1.265625 -5.34375 1.648438 -5.726562 2.140625 -6 C 2.628906 -6.28125 3.179688 -6.421875 3.796875 -6.421875 C 4.410156 -6.421875 4.960938 -6.28125 5.453125 -6 C 5.953125 -5.726562 6.335938 -5.34375 6.609375 -4.84375 C 6.890625 -4.351562 7.03125 -3.800781 7.03125 -3.1875 C 7.03125 -2.5625 6.890625 -2.003906 6.609375 -1.515625 C 6.335938 -1.023438 5.953125 -0.640625 5.453125 -0.359375 C 4.960938 -0.078125 4.410156 0.0625 3.796875 0.0625 Z M 3.796875 -0.703125 C 4.253906 -0.703125 4.660156 -0.800781 5.015625 -1 C 5.378906 -1.207031 5.660156 -1.5 5.859375 -1.875 C 6.054688 -2.257812 6.15625 -2.695312 6.15625 -3.1875 C 6.15625 -3.664062 6.054688 -4.09375 5.859375 -4.46875 C 5.660156 -4.851562 5.378906 -5.148438 5.015625 -5.359375 C 4.660156 -5.566406 4.253906 -5.671875 3.796875 -5.671875 C 3.347656 -5.671875 2.941406 -5.566406 2.578125 -5.359375 C 2.222656 -5.148438 1.941406 -4.851562 1.734375 -4.46875 C 1.523438 -4.09375 1.421875 -3.664062 1.421875 -3.1875 C 1.421875 -2.695312 1.523438 -2.257812 1.734375 -1.875 C 1.941406 -1.5 2.222656 -1.207031 2.578125 -1 C 2.941406 -0.800781 3.347656 -0.703125 3.796875 -0.703125 Z M 3.796875 -0.703125 "/></g></g></g><g fill="#a6a6a6" fill-opacity="1"><g transform="translate(140.928537, 98.730499)"><g><path d="M 3.796875 0.0625 C 3.179688 0.0625 2.628906 -0.078125 2.140625 -0.359375 C 1.648438 -0.640625 1.265625 -1.023438 0.984375 -1.515625 C 0.703125 -2.003906 0.5625 -2.5625 0.5625 -3.1875 C 0.5625 -3.800781 0.703125 -4.351562 0.984375 -4.84375 C 1.265625 -5.34375 1.648438 -5.726562 2.140625 -6 C 2.628906 -6.28125 3.179688 -6.421875 3.796875 -6.421875 C 4.410156 -6.421875 4.960938 -6.28125 5.453125 -6 C 5.953125 -5.726562 6.335938 -5.34375 6.609375 -4.84375 C 6.890625 -4.351562 7.03125 -3.800781 7.03125 -3.1875 C 7.03125 -2.5625 6.890625 -2.003906 6.609375 -1.515625 C 6.335938 -1.023438 5.953125 -0.640625 5.453125 -0.359375 C 4.960938 -0.078125 4.410156 0.0625 3.796875 0.0625 Z M 3.796875 -0.703125 C 4.253906 -0.703125 4.660156 -0.800781 5.015625 -1 C 5.378906 -1.207031 5.660156 -1.5 5.859375 -1.875 C 6.054688 -2.257812 6.15625 -2.695312 6.15625 -3.1875 C 6.15625 -3.664062 6.054688 -4.09375 5.859375 -4.46875 C 5.660156 -4.851562 5.378906 -5.148438 5.015625 -5.359375 C 4.660156 -5.566406 4.253906 -5.671875 3.796875 -5.671875 C 3.347656 -5.671875 2.941406 -5.566406 2.578125 -5.359375 C 2.222656 -5.148438 1.941406 -4.851562 1.734375 -4.46875 C 1.523438 -4.09375 1.421875 -3.664062 1.421875 -3.1875 C 1.421875 -2.695312 1.523438 -2.257812 1.734375 -1.875 C 1.941406 -1.5 2.222656 -1.207031 2.578125 -1 C 2.941406 -0.800781 3.347656 -0.703125 3.796875 -0.703125 Z M 3.796875 -0.703125 "/></g></g></g><g fill="#a6a6a6" fill-opacity="1"><g transform="translate(148.522395, 98.730499)"><g><path d="M 3.5625 -3.203125 L 2.0625 -1.8125 L 2.0625 0 L 1.203125 0 L 1.203125 -8.984375 L 2.0625 -8.984375 L 2.0625 -2.890625 L 5.859375 -6.375 L 6.921875 -6.375 L 4.203125 -3.765625 L 7.1875 0 L 6.125 0 Z M 3.5625 -3.203125 "/></g></g></g><g fill="#a6a6a6" fill-opacity="1"><g transform="translate(155.801356, 98.730499)"><g><path d="M 1.203125 -6.375 L 2.0625 -6.375 L 2.0625 0 L 1.203125 0 Z M 1.640625 -7.765625 C 1.453125 -7.765625 1.296875 -7.820312 1.171875 -7.9375 C 1.054688 -8.0625 1 -8.207031 1 -8.375 C 1 -8.539062 1.054688 -8.679688 1.171875 -8.796875 C 1.296875 -8.921875 1.453125 -8.984375 1.640625 -8.984375 C 1.816406 -8.984375 1.960938 -8.925781 2.078125 -8.8125 C 2.203125 -8.695312 2.265625 -8.554688 2.265625 -8.390625 C 2.265625 -8.210938 2.203125 -8.0625 2.078125 -7.9375 C 1.960938 -7.820312 1.816406 -7.765625 1.640625 -7.765625 Z M 1.640625 -7.765625 "/></g></g></g><g fill="#a6a6a6" fill-opacity="1"><g transform="translate(159.059335, 98.730499)"><g><path d="M 4.4375 -6.421875 C 5.238281 -6.421875 5.875 -6.1875 6.34375 -5.71875 C 6.820312 -5.257812 7.0625 -4.582031 7.0625 -3.6875 L 7.0625 0 L 6.203125 0 L 6.203125 -3.609375 C 6.203125 -4.265625 6.035156 -4.765625 5.703125 -5.109375 C 5.367188 -5.460938 4.894531 -5.640625 4.28125 -5.640625 C 3.59375 -5.640625 3.050781 -5.4375 2.65625 -5.03125 C 2.257812 -4.625 2.0625 -4.0625 2.0625 -3.34375 L 2.0625 0 L 1.203125 0 L 1.203125 -6.375 L 2.015625 -6.375 L 2.015625 -5.1875 C 2.253906 -5.582031 2.582031 -5.882812 3 -6.09375 C 3.414062 -6.3125 3.894531 -6.421875 4.4375 -6.421875 Z M 4.4375 -6.421875 "/></g></g></g><g clip-path="url(#id3)"><g fill="#a6a6a6" fill-opacity="1"><g transform="translate(167.258766, 98.730499)"><g><path d="M 7.09375 -6.375 L 7.09375 -0.78125 C 7.09375 0.300781 6.828125 1.101562 6.296875 1.625 C 5.773438 2.144531 4.976562 2.40625 3.90625 2.40625 C 3.320312 2.40625 2.765625 2.316406 2.234375 2.140625 C 1.703125 1.972656 1.269531 1.734375 0.9375 1.421875 L 1.375 0.78125 C 1.6875 1.050781 2.0625 1.257812 2.5 1.40625 C 2.9375 1.5625 3.398438 1.640625 3.890625 1.640625 C 4.691406 1.640625 5.28125 1.453125 5.65625 1.078125 C 6.039062 0.703125 6.234375 0.117188 6.234375 -0.671875 L 6.234375 -1.484375 C 5.972656 -1.078125 5.625 -0.765625 5.1875 -0.546875 C 4.757812 -0.335938 4.28125 -0.234375 3.75 -0.234375 C 3.15625 -0.234375 2.613281 -0.363281 2.125 -0.625 C 1.632812 -0.894531 1.25 -1.265625 0.96875 -1.734375 C 0.695312 -2.210938 0.5625 -2.75 0.5625 -3.34375 C 0.5625 -3.9375 0.695312 -4.46875 0.96875 -4.9375 C 1.25 -5.40625 1.628906 -5.769531 2.109375 -6.03125 C 2.597656 -6.289062 3.144531 -6.421875 3.75 -6.421875 C 4.289062 -6.421875 4.78125 -6.3125 5.21875 -6.09375 C 5.65625 -5.875 6.003906 -5.554688 6.265625 -5.140625 L 6.265625 -6.375 Z M 3.84375 -1 C 4.300781 -1 4.710938 -1.097656 5.078125 -1.296875 C 5.453125 -1.492188 5.742188 -1.769531 5.953125 -2.125 C 6.160156 -2.476562 6.265625 -2.882812 6.265625 -3.34375 C 6.265625 -3.789062 6.160156 -4.191406 5.953125 -4.546875 C 5.742188 -4.898438 5.457031 -5.175781 5.09375 -5.375 C 4.726562 -5.570312 4.3125 -5.671875 3.84375 -5.671875 C 3.375 -5.671875 2.957031 -5.570312 2.59375 -5.375 C 2.226562 -5.175781 1.941406 -4.898438 1.734375 -4.546875 C 1.523438 -4.191406 1.421875 -3.789062 1.421875 -3.34375 C 1.421875 -2.882812 1.523438 -2.476562 1.734375 -2.125 C 1.941406 -1.769531 2.226562 -1.492188 2.59375 -1.296875 C 2.957031 -1.097656 3.375 -1 3.84375 -1 Z M 3.84375 -1 "/></g></g></g></g><g fill="#a6a6a6" fill-opacity="1"><g transform="translate(175.567209, 98.730499)"><g><path d="M 1.28125 0.0625 C 1.101562 0.0625 0.953125 0 0.828125 -0.125 C 0.703125 -0.257812 0.640625 -0.421875 0.640625 -0.609375 C 0.640625 -0.796875 0.703125 -0.953125 0.828125 -1.078125 C 0.953125 -1.203125 1.101562 -1.265625 1.28125 -1.265625 C 1.457031 -1.265625 1.609375 -1.203125 1.734375 -1.078125 C 1.867188 -0.953125 1.9375 -0.796875 1.9375 -0.609375 C 1.9375 -0.421875 1.867188 -0.257812 1.734375 -0.125 C 1.609375 0 1.457031 0.0625 1.28125 0.0625 Z M 1.28125 0.0625 "/></g></g></g></svg>